HIERARCHY
ROOT Pelvis
{
	OFFSET 0.000000 0.000000 0.000000
	CHANNELS 6 Xposition Yposition Zposition Xrotation Yrotation Zrotation
	JOINT LeftUpLeg_virtual
	{
		OFFSET 0.000000 0.000000 0.000000
		CHANNELS 3 Xrotation Yrotation Zrotation
		JOINT LeftUpLeg
		{
			OFFSET 18.735201 -5.666702 -4.541200
			CHANNELS 3 Xrotation Yrotation Zrotation
			JOINT LeftLeg
			{
				OFFSET -0.021200 -31.938179 0.493100
				CHANNELS 3 Xrotation Yrotation Zrotation
				JOINT LeftFoot
				{
					OFFSET 0.021200 -31.938179 -4.336299
					CHANNELS 3 Xrotation Yrotation Zrotation
					JOINT LeftToeBase
					{
						OFFSET 0.943001 -26.722000 15.023500
						CHANNELS 3 Xrotation Yrotation Zrotation
						End Site
						{
							OFFSET 0 0 0
						}
					}
				}
			}
		}
	}
	JOINT RightUpLeg_virtual
	{
		OFFSET 0.000000 0.000000 0.000000
		CHANNELS 3 Xrotation Yrotation Zrotation
		JOINT RightUpLeg
		{
			OFFSET -18.735201 -5.666702 -4.541200
			CHANNELS 3 Xrotation Yrotation Zrotation
			JOINT RightLeg
			{
				OFFSET 0.018946 -31.938133 0.493100
				CHANNELS 3 Xrotation Yrotation Zrotation
				JOINT RightFoot
				{
					OFFSET -0.018946 -31.938126 -4.336299
					CHANNELS 3 Xrotation Yrotation Zrotation
					JOINT RightToeBase
					{
						OFFSET -0.943001 -26.722004 15.023500
						CHANNELS 3 Xrotation Yrotation Zrotation
						End Site
						{
							OFFSET 0 0 0
						}
					}
				}
			}
		}
	}
	JOINT Hips_virtual
	{
		OFFSET 0.000000 0.000000 0.000000
		CHANNELS 3 Xrotation Yrotation Zrotation
		JOINT Hips
		{
			OFFSET -0.000000 -0.000000 -0.000000
			CHANNELS 3 Xrotation Yrotation Zrotation
			JOINT Spine
			{
				OFFSET 0.000000 10.199997 -0.299500
				CHANNELS 3 Xrotation Yrotation Zrotation
				JOINT Spine1
				{
					OFFSET 0.000000 11.900002 -1.516600
					CHANNELS 3 Xrotation Yrotation Zrotation
					JOINT Spine2
					{
						OFFSET 0.000000 13.600006 -2.842500
						CHANNELS 3 Xrotation Yrotation Zrotation
						JOINT Neck_virtual
						{
							OFFSET 0.000000 0.000000 0.000000
							CHANNELS 3 Xrotation Yrotation Zrotation
							JOINT Neck
							{
								OFFSET 0.000000 9.624100 -2.890100
								CHANNELS 3 Xrotation Yrotation Zrotation
								JOINT Head
								{
									OFFSET 0.000000 14.068802 -1.351900
									CHANNELS 3 Xrotation Yrotation Zrotation
									End Site
									{
										OFFSET 0 0 0
									}
								}
							}
						}
						JOINT LeftShoulder_virtual
						{
							OFFSET 0.000000 0.000000 0.000000
							CHANNELS 3 Xrotation Yrotation Zrotation
							JOINT LeftShoulder
							{
								OFFSET 15.263000 10.923401 -0.547700
								CHANNELS 3 Xrotation Yrotation Zrotation
								JOINT LeftArm
								{
									OFFSET 25.438599 -2.830597 -13.032500
									CHANNELS 3 Xrotation Yrotation Zrotation
									JOINT LeftForeArm
									{
										OFFSET 29.960503 0.000000 0.000000
										CHANNELS 3 Xrotation Yrotation Zrotation
										JOINT LeftHand
										{
											OFFSET 27.849251 0.000000 0.000000
											CHANNELS 3 Xrotation Yrotation Zrotation
											End Site
											{
												OFFSET 0 0 0
											}
										}
									}
								}
							}
						}
						JOINT RightShoulder_virtual
						{
							OFFSET 0.000000 0.000000 0.000000
							CHANNELS 3 Xrotation Yrotation Zrotation
							JOINT RightShoulder
							{
								OFFSET -15.263000 10.923401 -0.547700
								CHANNELS 3 Xrotation Yrotation Zrotation
								JOINT RightArm
								{
									OFFSET -25.438599 -2.830597 -13.032500
									CHANNELS 3 Xrotation Yrotation Zrotation
									JOINT RightForeArm
									{
										OFFSET -29.960503 0.000000 0.000000
										CHANNELS 3 Xrotation Yrotation Zrotation
										JOINT RightHand
										{
											OFFSET -27.849251 0.000000 0.000000
											CHANNELS 3 Xrotation Yrotation Zrotation
											End Site
											{
												OFFSET 0 0 0
											}
										}
									}
								}
							}
						}
					}
				}
			}
		}
	}
}
MOTION
Frames: 13
Frame Time: 0.03333333
-1.701497 93.710999 2.385597 0.000000 0.000000 0.000000 2.912644 -28.993313 1.190182 -19.098604 17.301757 13.859932 23.892396 12.128025 -1.505771 -6.535488 -3.216388 -8.276452 0.000000 0.000000 0.000000 2.912644 -28.993313 1.190182 -12.316777 -0.376341 -11.127483 16.862704 9.912845 0.865780 -8.236208 -1.383601 8.924545 0.000000 0.000000 0.000000 2.912644 -28.993313 1.190182 0.000000 -0.000001 0.000000 7.835993 -0.359794 -2.682027 1.099254 -0.880535 2.383669 0.000000 0.000000 0.000000 1.108681 -0.590407 2.446525 -0.922793 3.567082 -1.380654 0.000000 0.000000 0.000000 1.108681 -0.590407 2.446525 -0.055833 -8.758002 -0.067358 -55.250797 0.329432 -41.449365 11.606995 -65.826030 13.026194 0.000000 0.000000 0.000000 1.108681 -0.590407 2.446525 4.849281 7.760137 5.560457 -0.933509 -2.176876 61.845628 11.299294 18.943485 -3.987561 0.000000 0.000000 0.000000 
-1.716280 93.704254 2.399395 0.000000 0.000000 0.000000 2.996556 -29.004651 1.231148 -19.153686 17.290400 13.868901 23.884946 12.125213 -1.508868 -6.540507 -3.213061 -8.292032 0.000000 0.000000 0.000000 2.996556 -29.004651 1.231148 -12.385232 -0.377518 -11.115458 16.874773 9.919438 0.863298 -8.257553 -1.373123 8.911566 0.000000 0.000000 0.000000 2.996556 -29.004651 1.231148 0.000000 0.000001 0.000000 7.835994 -0.359843 -2.681677 1.099094 -0.876637 2.383003 0.000000 0.000000 0.000000 1.108492 -0.585941 2.445759 -0.924529 3.575135 -1.386167 0.000000 0.000000 0.000000 1.108492 -0.585941 2.445759 -0.070036 -8.744145 -0.065998 -54.884340 0.118803 -41.197604 11.633637 -65.908832 13.202015 0.000000 0.000000 0.000000 1.108492 -0.585941 2.445759 4.841097 7.792198 5.599188 -0.876152 -2.203268 61.799736 11.304718 18.977115 -3.997569 0.000000 0.000000 0.000000 
-1.734401 93.693626 2.414707 0.000000 0.000000 0.000000 3.094831 -29.009367 1.274159 -19.231451 17.245956 13.887025 23.900456 12.126824 -1.515758 -6.552071 -3.195390 -8.316143 0.000000 0.000000 0.000000 3.094831 -29.009367 1.274159 -12.486953 -0.384367 -11.111440 16.903914 9.949222 0.854993 -8.269329 -1.365824 8.906211 0.000000 0.000000 0.000000 3.094831 -29.009367 1.274159 0.000000 0.000000 0.000000 7.836139 -0.356895 -2.682266 1.098786 -0.869317 2.381754 0.000000 0.000000 0.000000 1.110464 -0.579790 2.444748 -0.918022 3.589256 -1.398085 0.000000 0.000000 0.000000 1.110464 -0.579790 2.444748 -0.072283 -8.728838 -0.064798 -54.827554 0.180459 -41.050420 11.670619 -66.019099 13.220209 0.000000 0.000000 0.000000 1.110464 -0.579790 2.444748 4.839191 7.844304 5.594993 -0.848534 -2.241860 61.787264 11.331114 18.903923 -3.971955 0.000000 0.000000 0.000000 
-1.751833 93.682747 2.428623 0.000000 0.000000 0.000000 3.192267 -29.006372 1.315259 -19.311004 17.183928 13.898368 23.931439 12.160716 -1.531504 -6.570519 -3.179728 -8.333779 0.000000 0.000000 0.000000 3.192267 -29.006372 1.315259 -12.570167 -0.403904 -11.094987 16.927652 9.936302 0.849631 -8.292732 -1.363980 8.899707 0.000000 0.000000 0.000000 3.192267 -29.006372 1.315259 0.000000 0.000000 0.000000 7.831317 -0.344728 -2.678639 1.104964 -0.859948 2.374746 0.000000 0.000000 0.000000 1.116788 -0.570572 2.437568 -0.912186 3.602521 -1.410126 0.000000 0.000000 0.000000 1.116788 -0.570572 2.437568 -0.091583 -8.709464 -0.063617 -54.824006 0.285206 -40.971535 11.705491 -66.122570 13.258902 0.000000 0.000000 0.000000 1.116788 -0.570572 2.437568 4.835599 7.900902 5.599400 -0.826514 -2.297774 61.813765 11.287203 18.781849 -4.000379 0.000000 0.000000 0.000000 
-1.769086 93.671051 2.441416 0.000000 0.000000 0.000000 3.291013 -28.992695 1.354154 -19.395695 17.098077 13.907529 23.972854 12.206397 -1.548904 -6.589272 -3.145346 -8.352814 0.000000 0.000000 0.000000 3.291013 -28.992695 1.354154 -12.665071 -0.428452 -11.075091 16.967237 9.949116 0.842975 -8.323558 -1.353204 8.879602 0.000000 0.000000 0.000000 3.291013 -28.992695 1.354154 0.000000 0.000001 0.000000 7.819764 -0.327706 -2.673608 1.117935 -0.846390 2.364977 0.000000 0.000000 0.000000 1.129929 -0.558668 2.427741 -0.907975 3.621771 -1.422175 0.000000 0.000000 0.000000 1.129929 -0.558668 2.427741 -0.083036 -8.692235 -0.064193 -54.911862 0.413686 -40.899999 11.726555 -66.225781 13.255938 0.000000 0.000000 0.000000 1.129929 -0.558668 2.427741 4.830467 7.962084 5.611528 -0.812633 -2.366859 61.793213 11.316478 18.639494 -3.971524 0.000000 0.000000 0.000000 
-1.787107 93.656853 2.452732 0.000000 0.000000 0.000000 3.392638 -28.965401 1.391534 -19.501365 16.983638 13.919598 24.030719 12.234427 -1.569291 -6.608644 -3.119359 -8.368565 0.000000 0.000000 0.000000 3.392638 -28.965401 1.391534 -12.750293 -0.470798 -11.057253 17.001096 9.924247 0.817577 -8.350093 -1.362515 8.890860 0.000000 0.000000 0.000000 3.392638 -28.965401 1.391534 0.000000 0.000000 0.000000 7.812823 -0.306028 -2.667629 1.127845 -0.828380 2.358300 0.000000 0.000000 0.000000 1.140059 -0.541543 2.421100 -0.904304 3.639804 -1.441100 0.000000 0.000000 0.000000 1.140059 -0.541543 2.421100 -0.091047 -8.671647 -0.064418 -54.970442 0.539501 -40.835509 11.738893 -66.324661 13.258247 0.000000 0.000000 0.000000 1.140059 -0.541543 2.421100 4.825819 8.017240 5.622652 -0.780871 -2.427680 61.822836 11.254532 18.480200 -4.019926 0.000000 0.000000 0.000000 
-1.804989 93.642700 2.463711 0.000000 0.000000 0.000000 3.497706 -28.922040 1.426954 -19.610528 16.844087 13.928309 24.093637 12.287048 -1.589785 -6.624847 -3.077695 -8.388499 0.000000 0.000000 0.000000 3.497706 -28.922040 1.426954 -12.857611 -0.536075 -11.035275 17.053625 9.953849 0.816636 -8.386898 -1.344217 8.864309 0.000000 0.000000 0.000000 3.497706 -28.922040 1.426954 0.000000 -0.000001 0.000000 7.802137 -0.281592 -2.661716 1.138350 -0.807842 2.349023 0.000000 0.000000 0.000000 1.150806 -0.522312 2.411883 -0.899370 3.662890 -1.456387 0.000000 0.000000 0.000000 1.150806 -0.522312 2.411883 -0.084658 -8.656187 -0.065730 -55.018536 0.629087 -40.733206 11.744564 -66.427278 13.255494 0.000000 0.000000 0.000000 1.150806 -0.522312 2.411883 4.818684 8.090142 5.643135 -0.742733 -2.498038 61.818615 11.246329 18.307383 -4.026826 0.000000 0.000000 0.000000 
-1.824504 93.626190 2.473459 0.000000 0.000000 0.000000 3.605929 -28.859817 1.461027 -19.741642 16.681076 13.945006 24.172304 12.317217 -1.623546 -6.640878 -3.049886 -8.398074 0.000000 0.000000 0.000000 3.605929 -28.859817 1.461027 -12.954354 -0.630170 -11.023378 17.100907 9.961405 0.811382 -8.429498 -1.337857 8.847974 0.000000 0.000000 0.000000 3.605929 -28.859817 1.461027 0.000000 0.000001 0.000000 7.784443 -0.264381 -2.661390 1.150148 -0.790019 2.342570 0.000000 0.000000 0.000000 1.162762 -0.505198 2.405255 -0.890615 3.690939 -1.470402 0.000000 0.000000 0.000000 1.162762 -0.505198 2.405255 -0.078249 -8.608274 -0.065024 -55.165710 0.736294 -40.750842 11.701238 -66.490198 13.191099 0.000000 0.000000 0.000000 1.162762 -0.505198 2.405255 4.811216 8.208900 5.653094 -0.697926 -2.581740 61.829604 11.228425 18.104132 -4.038490 0.000000 0.000000 0.000000 
-1.845280 93.608803 2.482851 0.000000 0.000000 0.000000 3.716718 -28.775870 1.494458 -19.879486 16.504286 13.962751 24.257878 12.362776 -1.663786 -6.654333 -3.015782 -8.406432 0.000000 0.000000 0.000000 3.716718 -28.775870 1.494458 -13.054203 -0.741194 -11.011518 17.160939 9.967837 0.817745 -8.484885 -1.328874 8.815630 0.000000 0.000000 0.000000 3.716718 -28.775870 1.494458 0.000000 0.000002 0.000000 7.753030 -0.250149 -2.657844 1.172169 -0.773996 2.335616 0.000000 0.000000 0.000000 1.184878 -0.489932 2.398013 -0.880643 3.733168 -1.490894 0.000000 0.000000 0.000000 1.184878 -0.489932 2.398013 -0.066595 -8.552718 -0.064406 -55.354606 0.872093 -40.806146 11.654640 -66.553227 13.123800 0.000000 0.000000 0.000000 1.184878 -0.489932 2.398013 4.791610 8.346626 5.647610 -0.642221 -2.665543 61.868175 11.192366 17.878681 -4.062206 0.000000 0.000000 0.000000 
-1.867418 93.590088 2.492332 0.000000 0.000000 0.000000 3.829663 -28.666751 1.528780 -20.030406 16.291898 13.974442 24.345229 12.386534 -1.710625 -6.660303 -2.991503 -8.405411 0.000000 0.000000 0.000000 3.829663 -28.666751 1.528780 -13.154939 -0.867258 -10.998250 17.242263 9.972251 0.823975 -8.566334 -1.318108 8.764010 0.000000 0.000000 0.000000 3.829663 -28.666751 1.528780 0.000000 0.000000 0.000000 7.716636 -0.239706 -2.658950 1.188277 -0.758154 2.332976 0.000000 0.000000 0.000000 1.201013 -0.474293 2.394906 -0.857045 3.788098 -1.520624 0.000000 0.000000 0.000000 1.201013 -0.474293 2.394906 -0.055083 -8.491721 -0.064848 -55.582273 1.027387 -40.891612 11.604212 -66.615204 13.052914 0.000000 0.000000 0.000000 1.201013 -0.474293 2.394906 4.796470 8.506329 5.607055 -0.601448 -2.772288 61.912653 11.204568 17.632029 -4.045820 0.000000 0.000000 0.000000 
-1.891645 93.569405 2.502335 0.000000 0.000000 0.000000 3.944712 -28.528723 1.566460 -20.189225 16.083323 13.991812 24.438075 12.421991 -1.774687 -6.662630 -2.976676 -8.395672 0.000000 0.000000 0.000000 3.944712 -28.528723 1.566460 -13.261918 -1.003032 -10.995770 17.340015 9.976068 0.834779 -8.651491 -1.308997 8.730782 0.000000 0.000000 0.000000 3.944712 -28.528723 1.566460 0.000000 -0.000002 0.000000 7.676821 -0.224106 -2.641105 1.198236 -0.742674 2.317008 0.000000 0.000000 0.000000 1.210361 -0.460879 2.378697 -0.819392 3.865137 -1.564325 0.000000 0.000000 0.000000 1.210361 -0.460879 2.378697 -0.042200 -8.425475 -0.065375 -55.839884 1.199296 -41.001342 11.550110 -66.676436 12.978515 0.000000 0.000000 0.000000 1.210361 -0.460879 2.378697 4.769777 8.654987 5.546199 -0.515003 -2.889066 62.016642 11.182492 17.375817 -4.055877 0.000000 0.000000 0.000000 
-1.917276 93.547470 2.513683 0.000000 0.000000 0.000000 4.061972 -28.357830 1.608954 -20.354264 15.850490 14.004560 24.523133 12.441153 -1.855282 -6.651884 -2.970827 -8.371853 0.000000 0.000000 0.000000 4.061972 -28.357830 1.608954 -13.359903 -1.150572 -10.991635 17.461274 9.960088 0.826521 -8.777221 -1.319189 8.676730 0.000000 0.000000 0.000000 4.061972 -28.357830 1.608954 0.000000 0.000001 0.000000 7.634984 -0.204797 -2.624231 1.207802 -0.723194 2.303694 0.000000 0.000000 0.000000 1.218411 -0.443147 2.365080 -0.775173 3.966487 -1.627287 0.000000 0.000000 0.000000 1.218411 -0.443147 2.365080 -0.028578 -8.354915 -0.065970 -56.118081 1.385378 -41.129483 11.492754 -66.737451 12.900924 0.000000 0.000000 0.000000 1.218411 -0.443147 2.365080 4.741574 8.761423 5.456703 -0.428010 -3.000589 62.144872 11.166887 17.119758 -4.061679 0.000000 0.000000 0.000000 
-1.943694 93.524612 2.527557 0.000000 0.000000 0.000000 4.181330 -28.150690 1.656913 -20.523542 15.594408 13.997860 24.595342 12.451294 -1.930004 -6.626850 -2.966248 -8.344092 0.000000 0.000000 0.000000 4.181330 -28.150690 1.656913 -13.475040 -1.319515 -11.000086 17.615905 9.967520 0.839734 -8.920079 -1.308280 8.612877 0.000000 0.000000 0.000000 4.181330 -28.150690 1.656913 0.000000 -0.000001 0.000000 7.591485 -0.188700 -2.607821 1.215882 -0.704540 2.292632 0.000000 0.000000 0.000000 1.226746 -0.426075 2.353583 -0.725468 4.091746 -1.708376 0.000000 0.000000 0.000000 1.226746 -0.426075 2.353583 -0.014422 -8.280700 -0.066603 -56.409446 1.581258 -41.269898 11.432218 -66.798239 12.820202 0.000000 0.000000 0.000000 1.226746 -0.426075 2.353583 4.729145 8.855320 5.342914 -0.353638 -3.115945 62.300519 11.130247 16.870690 -4.085528 0.000000 0.000000 0.000000 
